<svg viewBox="0 0 1513 400" xmlns="http://www.w3.org/2000/svg"><g><g><g><g><g><line x1="61.953125" y1="377" x2="56.953125" y2="377" style="visibility: inherit;" fill="rgb(0, 0, 0)" stroke="rgb(204, 204, 204)" stroke-width="1px"></line><line x1="61.953125" y1="335.11111111111103" x2="56.953125" y2="335.11111111111103" style="visibility: inherit;" fill="rgb(0, 0, 0)" stroke="rgb(204, 204, 204)" stroke-width="1px"></line><line x1="61.953125" y1="293.222222222222" x2="56.953125" y2="293.222222222222" style="visibility: inherit;" fill="rgb(0, 0, 0)" stroke="rgb(204, 204, 204)" stroke-width="1px"></line><line x1="61.953125" y1="251.33333333333303" x2="56.953125" y2="251.33333333333303" style="visibility: inherit;" fill="rgb(0, 0, 0)" stroke="rgb(204, 204, 204)" stroke-width="1px"></line><line x1="61.953125" y1="209.44444444444403" x2="56.953125" y2="209.44444444444403" style="visibility: inherit;" fill="rgb(0, 0, 0)" stroke="rgb(204, 204, 204)" stroke-width="1px"></line><line x1="61.953125" y1="167.55555555555503" x2="56.953125" y2="167.55555555555503" style="visibility: inherit;" fill="rgb(0, 0, 0)" stroke="rgb(204, 204, 204)" stroke-width="1px"></line><line x1="61.953125" y1="125.66666666666605" x2="56.953125" y2="125.66666666666605" style="visibility: inherit;" fill="rgb(0, 0, 0)" stroke="rgb(204, 204, 204)" stroke-width="1px"></line><line x1="61.953125" y1="83.77777777777706" x2="56.953125" y2="83.77777777777706" style="visibility: inherit;" fill="rgb(0, 0, 0)" stroke="rgb(204, 204, 204)" stroke-width="1px"></line><line x1="61.953125" y1="41.88888888888807" x2="56.953125" y2="41.88888888888807" style="visibility: inherit;" fill="rgb(0, 0, 0)" stroke="rgb(204, 204, 204)" stroke-width="1px"></line><line x1="61.953125" y1="0" x2="56.953125" y2="0" style="visibility: inherit;" fill="rgb(0, 0, 0)" stroke="rgb(204, 204, 204)" stroke-width="1px"></line></g><g transform="translate(51.953125, 0)"><text x="0" y="377" dx="0em" dy="0.3em" style="text-anchor: end; visibility: hidden; font-family: Roboto, sans-serif; font-size: 12px; font-weight: 200;" fill="rgb(33, 33, 33)" stroke="none" stroke-width="1px">0.895</text><text x="0" y="335.11111111111103" dx="0em" dy="0.3em" style="text-anchor: end; visibility: inherit; font-family: Roboto, sans-serif; font-size: 12px; font-weight: 200;" fill="rgb(33, 33, 33)" stroke="none" stroke-width="1px">0.9</text><text x="0" y="293.222222222222" dx="0em" dy="0.3em" style="text-anchor: end; visibility: inherit; font-family: Roboto, sans-serif; font-size: 12px; font-weight: 200;" fill="rgb(33, 33, 33)" stroke="none" stroke-width="1px">0.905</text><text x="0" y="251.33333333333303" dx="0em" dy="0.3em" style="text-anchor: end; visibility: inherit; font-family: Roboto, sans-serif; font-size: 12px; font-weight: 200;" fill="rgb(33, 33, 33)" stroke="none" stroke-width="1px">0.91</text><text x="0" y="209.44444444444403" dx="0em" dy="0.3em" style="text-anchor: end; visibility: inherit; font-family: Roboto, sans-serif; font-size: 12px; font-weight: 200;" fill="rgb(33, 33, 33)" stroke="none" stroke-width="1px">0.915</text><text x="0" y="167.55555555555503" dx="0em" dy="0.3em" style="text-anchor: end; visibility: inherit; font-family: Roboto, sans-serif; font-size: 12px; font-weight: 200;" fill="rgb(33, 33, 33)" stroke="none" stroke-width="1px">0.92</text><text x="0" y="125.66666666666605" dx="0em" dy="0.3em" style="text-anchor: end; visibility: inherit; font-family: Roboto, sans-serif; font-size: 12px; font-weight: 200;" fill="rgb(33, 33, 33)" stroke="none" stroke-width="1px">0.925</text><text x="0" y="83.77777777777706" dx="0em" dy="0.3em" style="text-anchor: end; visibility: inherit; font-family: Roboto, sans-serif; font-size: 12px; font-weight: 200;" fill="rgb(33, 33, 33)" stroke="none" stroke-width="1px">0.93</text><text x="0" y="41.88888888888807" dx="0em" dy="0.3em" style="text-anchor: end; visibility: inherit; font-family: Roboto, sans-serif; font-size: 12px; font-weight: 200;" fill="rgb(33, 33, 33)" stroke="none" stroke-width="1px">0.935</text><text x="0" y="0" dx="0em" dy="0.3em" style="text-anchor: end; visibility: hidden; font-family: Roboto, sans-serif; font-size: 12px; font-weight: 200;" fill="rgb(33, 33, 33)" stroke="none" stroke-width="1px">0.94</text></g><line x1="61.953125" y1="0" x2="61.953125" y2="377" fill="rgb(0, 0, 0)" stroke="rgb(204, 204, 204)" stroke-width="1px"></line></g></g><g transform="translate(61, 0)" clip-path="url(#clip_0)"><clipPath id="clip_0"><rect width="1451" height="377"></rect></clipPath><g><g><g><line x1="0" y1="0" x2="0" y2="377" fill="rgb(0, 0, 0)" stroke="rgb(66, 66, 66)" stroke-width="1px" opacity="0.25"></line><line x1="96.73645833333333" y1="0" x2="96.73645833333333" y2="377" fill="rgb(0, 0, 0)" stroke="rgb(66, 66, 66)" stroke-width="1px" opacity="0.25"></line><line x1="193.47291666666666" y1="0" x2="193.47291666666666" y2="377" fill="rgb(0, 0, 0)" stroke="rgb(66, 66, 66)" stroke-width="1px" opacity="0.25"></line><line x1="290.209375" y1="0" x2="290.209375" y2="377" fill="rgb(0, 0, 0)" stroke="rgb(66, 66, 66)" stroke-width="1px" opacity="0.25"></line><line x1="386.9458333333333" y1="0" x2="386.9458333333333" y2="377" fill="rgb(0, 0, 0)" stroke="rgb(66, 66, 66)" stroke-width="1px" opacity="0.25"></line><line x1="483.68229166666663" y1="0" x2="483.68229166666663" y2="377" fill="rgb(0, 0, 0)" stroke="rgb(66, 66, 66)" stroke-width="1px" opacity="0.25"></line><line x1="580.41875" y1="0" x2="580.41875" y2="377" fill="rgb(0, 0, 0)" stroke="rgb(66, 66, 66)" stroke-width="1px" opacity="0.25"></line><line x1="677.1552083333333" y1="0" x2="677.1552083333333" y2="377" fill="rgb(0, 0, 0)" stroke="rgb(66, 66, 66)" stroke-width="1px" opacity="0.25"></line><line x1="773.8916666666667" y1="0" x2="773.8916666666667" y2="377" fill="rgb(0, 0, 0)" stroke="rgb(66, 66, 66)" stroke-width="1px" opacity="0.25"></line><line x1="870.628125" y1="0" x2="870.628125" y2="377" fill="rgb(0, 0, 0)" stroke="rgb(66, 66, 66)" stroke-width="1px" opacity="0.25"></line><line x1="967.3645833333333" y1="0" x2="967.3645833333333" y2="377" fill="rgb(0, 0, 0)" stroke="rgb(66, 66, 66)" stroke-width="1px" opacity="0.25"></line><line x1="1064.1010416666666" y1="0" x2="1064.1010416666666" y2="377" fill="rgb(0, 0, 0)" stroke="rgb(66, 66, 66)" stroke-width="1px" opacity="0.25"></line><line x1="1160.8375" y1="0" x2="1160.8375" y2="377" fill="rgb(0, 0, 0)" stroke="rgb(66, 66, 66)" stroke-width="1px" opacity="0.25"></line><line x1="1257.5739583333334" y1="0" x2="1257.5739583333334" y2="377" fill="rgb(0, 0, 0)" stroke="rgb(66, 66, 66)" stroke-width="1px" opacity="0.25"></line><line x1="1354.3104166666667" y1="0" x2="1354.3104166666667" y2="377" fill="rgb(0, 0, 0)" stroke="rgb(66, 66, 66)" stroke-width="1px" opacity="0.25"></line><line x1="1451.046875" y1="0" x2="1451.046875" y2="377" fill="rgb(0, 0, 0)" stroke="rgb(66, 66, 66)" stroke-width="1px" opacity="0.25"></line></g><g><line x1="0" y1="377" x2="1451.046875" y2="377" fill="rgb(0, 0, 0)" stroke="rgb(66, 66, 66)" stroke-width="1px" opacity="0.25"></line><line x1="0" y1="335.11111111111103" x2="1451.046875" y2="335.11111111111103" fill="rgb(0, 0, 0)" stroke="rgb(66, 66, 66)" stroke-width="1px" opacity="0.25"></line><line x1="0" y1="293.222222222222" x2="1451.046875" y2="293.222222222222" fill="rgb(0, 0, 0)" stroke="rgb(66, 66, 66)" stroke-width="1px" opacity="0.25"></line><line x1="0" y1="251.33333333333303" x2="1451.046875" y2="251.33333333333303" fill="rgb(0, 0, 0)" stroke="rgb(66, 66, 66)" stroke-width="1px" opacity="0.25"></line><line x1="0" y1="209.44444444444403" x2="1451.046875" y2="209.44444444444403" fill="rgb(0, 0, 0)" stroke="rgb(66, 66, 66)" stroke-width="1px" opacity="0.25"></line><line x1="0" y1="167.55555555555503" x2="1451.046875" y2="167.55555555555503" fill="rgb(0, 0, 0)" stroke="rgb(66, 66, 66)" stroke-width="1px" opacity="0.25"></line><line x1="0" y1="125.66666666666605" x2="1451.046875" y2="125.66666666666605" fill="rgb(0, 0, 0)" stroke="rgb(66, 66, 66)" stroke-width="1px" opacity="0.25"></line><line x1="0" y1="83.77777777777706" x2="1451.046875" y2="83.77777777777706" fill="rgb(0, 0, 0)" stroke="rgb(66, 66, 66)" stroke-width="1px" opacity="0.25"></line><line x1="0" y1="41.88888888888807" x2="1451.046875" y2="41.88888888888807" fill="rgb(0, 0, 0)" stroke="rgb(66, 66, 66)" stroke-width="1px" opacity="0.25"></line><line x1="0" y1="0" x2="1451.046875" y2="0" fill="rgb(0, 0, 0)" stroke="rgb(66, 66, 66)" stroke-width="1px" opacity="0.25"></line></g></g></g><g><g><line x1="0" y1="7875.111111111123" x2="1451.046875" y2="7875.111111111123" fill="rgb(0, 0, 0)" stroke="rgb(153, 153, 153)" stroke-width="1.5px"></line></g></g><g><g><line x1="96.73645833333333" y1="0" x2="96.73645833333333" y2="377" fill="rgb(0, 0, 0)" stroke="rgb(153, 153, 153)" stroke-width="1.5px"></line></g></g><g><g><g><g><g><path stroke="rgb(0, 119, 187)" stroke-width="2px" d="M96.73645833333333,393.7554996278553L145.1046875,345.4222123887807L193.47291666666666,395.2622927552131L241.84114583333331,287.7768664637112L290.209375,273.96175618552024L338.5776041666667,319.73182052655017L386.9458333333333,280.6409046939661L435.3140625,268.9214102114516L483.68229166666663,215.5576200936435L532.0505208333333,308.04212837590495L580.41875,227.29474286088802L628.7869791666667,232.39286721567842L677.1552083333333,204.60010312332707L725.5234375,278.36449568788134L773.8916666666667,259.4425279670134L822.2598958333333,212.71500557864584L870.628125,204.56111799479928L918.9963541666666,196.25058278490746L967.3645833333333,199.6217911676002L1015.7328124999999,312.05756177737516L1064.1010416666666,222.6351469799176L1112.4692708333334,172.350597225132L1160.8375,163.12960124089508L1209.2057291666667,151.5665742584932L1257.5739583333334,268.318802442362L1305.9421875,180.191324921973L1354.3104166666667,165.48181954995678" style="fill: none;" fill="none"></path></g><g><path stroke="rgb(255, 112, 67)" stroke-width="2px" d="M96.73645833333333,412.1866730584041L145.1046875,354.18665154775084L193.47291666666666,332.0250128396124L241.84114583333331,280.9920347517053L290.209375,246.65934791676068L338.5776041666667,254.62842833970402L386.9458333333333,245.86923124510037L435.3140625,200.4298490568573L483.68229166666663,182.69557340025588L532.0505208333333,175.6163222369519L580.41875,148.27543921255145L628.7869791666667,137.14085757632327L677.1552083333333,148.4615879369037L725.5234375,121.36252616839133L773.8916666666667,114.9924341185025L822.2598958333333,106.63049585825205L870.628125,80.0775473069145L918.9963541666666,83.84075020948778L967.3645833333333,56.820250786447644L1015.7328124999999,58.68356311903697L1064.1010416666666,69.21201897515529L1112.4692708333334,41.28908574561852L1160.8375,38.19038250837561L1209.2057291666667,35.50149580940284L1257.5739583333334,20.619924881041342L1305.9421875,-3.1972784995430024" style="fill: none;" fill="none"></path></g></g></g></g><g opacity="0.2"><g><g><g><path stroke="rgb(0, 119, 187)" stroke-width="2px" d="M96.73645833333333,393.7554996278553L145.1046875,330.92222621705804L193.47291666666666,414.699924098121L241.84114583333331,242.95544370015458L290.209375,268.0889528062608L338.5776041666667,339.2998961342706L386.9458333333333,263.8998681704203L435.3140625,263.8998681704203L483.68229166666663,192.68892484241047L532.0505208333333,347.6775660514832L580.41875,192.68892484241047L628.7869791666667,234.57777378294193L677.1552083333333,192.68892484241047L725.5234375,309.97780174679235L773.8916666666667,251.3331136173672L822.2598958333333,192.68892484241047L870.628125,201.0665947596231L918.9963541666666,192.68892484241047L967.3645833333333,201.0665947596231L1015.7328124999999,360.24432060453637L1064.1010416666666,184.3112549251979L1112.4692708333334,150.800075901879L1160.8375,159.1777458190916L1209.2057291666667,146.6109912660385L1257.5739583333334,318.35547166400494L1305.9421875,142.42240598466637L1354.3104166666667,159.1777458190916" style="fill: none;" fill="none"></path></g><g><path stroke="rgb(255, 112, 67)" stroke-width="2px" d="M96.73645833333333,412.1866730584041L145.1046875,336.7866450945537L193.47291666666666,323.3819737434388L241.84114583333331,259.7112828890482L290.209375,232.064522743225L338.5776041666667,258.0354492929246L386.9458333333333,242.1180262565612L435.3140625,180.96008708741914L483.68229166666663,175.09566820992347L532.0505208333333,172.58241717020655L580.41875,136.5579871071707L628.7869791666667,132.3689024713302L677.1552083333333,153.31332694159593L725.5234375,109.74864440494086L773.8916666666667,112.26239479912623L822.2598958333333,103.04680808385187L870.628125,68.69771226247117L918.9963541666666,85.45355145136483L967.3645833333333,45.240036752488514L1015.7328124999999,59.482125547196766L1064.1010416666666,73.72421434190505L1112.4692708333334,29.322114361656624L1160.8375,36.86236683527588L1209.2057291666667,34.34911579555896L1257.5739583333334,14.242108768886553L1305.9421875,-13.404651376936664" style="fill: none;" fill="none"></path></g></g></g></g></g></g><g transform="translate(61, 377)" clip-path="url(#clip_1)"><clipPath id="clip_1"><rect width="1451" height="23"></rect></clipPath><g><g><line x1="0" y1="0" x2="0" y2="5" style="visibility: inherit;" fill="rgb(0, 0, 0)" stroke="rgb(204, 204, 204)" stroke-width="1px"></line><line x1="96.73645833333333" y1="0" x2="96.73645833333333" y2="5" style="visibility: inherit;" fill="rgb(0, 0, 0)" stroke="rgb(204, 204, 204)" stroke-width="1px"></line><line x1="193.47291666666666" y1="0" x2="193.47291666666666" y2="5" style="visibility: inherit;" fill="rgb(0, 0, 0)" stroke="rgb(204, 204, 204)" stroke-width="1px"></line><line x1="290.209375" y1="0" x2="290.209375" y2="5" style="visibility: inherit;" fill="rgb(0, 0, 0)" stroke="rgb(204, 204, 204)" stroke-width="1px"></line><line x1="386.9458333333333" y1="0" x2="386.9458333333333" y2="5" style="visibility: inherit;" fill="rgb(0, 0, 0)" stroke="rgb(204, 204, 204)" stroke-width="1px"></line><line x1="483.68229166666663" y1="0" x2="483.68229166666663" y2="5" style="visibility: inherit;" fill="rgb(0, 0, 0)" stroke="rgb(204, 204, 204)" stroke-width="1px"></line><line x1="580.41875" y1="0" x2="580.41875" y2="5" style="visibility: inherit;" fill="rgb(0, 0, 0)" stroke="rgb(204, 204, 204)" stroke-width="1px"></line><line x1="677.1552083333333" y1="0" x2="677.1552083333333" y2="5" style="visibility: inherit;" fill="rgb(0, 0, 0)" stroke="rgb(204, 204, 204)" stroke-width="1px"></line><line x1="773.8916666666667" y1="0" x2="773.8916666666667" y2="5" style="visibility: inherit;" fill="rgb(0, 0, 0)" stroke="rgb(204, 204, 204)" stroke-width="1px"></line><line x1="870.628125" y1="0" x2="870.628125" y2="5" style="visibility: inherit;" fill="rgb(0, 0, 0)" stroke="rgb(204, 204, 204)" stroke-width="1px"></line><line x1="967.3645833333333" y1="0" x2="967.3645833333333" y2="5" style="visibility: inherit;" fill="rgb(0, 0, 0)" stroke="rgb(204, 204, 204)" stroke-width="1px"></line><line x1="1064.1010416666666" y1="0" x2="1064.1010416666666" y2="5" style="visibility: inherit;" fill="rgb(0, 0, 0)" stroke="rgb(204, 204, 204)" stroke-width="1px"></line><line x1="1160.8375" y1="0" x2="1160.8375" y2="5" style="visibility: inherit;" fill="rgb(0, 0, 0)" stroke="rgb(204, 204, 204)" stroke-width="1px"></line><line x1="1257.5739583333334" y1="0" x2="1257.5739583333334" y2="5" style="visibility: inherit;" fill="rgb(0, 0, 0)" stroke="rgb(204, 204, 204)" stroke-width="1px"></line><line x1="1354.3104166666667" y1="0" x2="1354.3104166666667" y2="5" style="visibility: inherit;" fill="rgb(0, 0, 0)" stroke="rgb(204, 204, 204)" stroke-width="1px"></line><line x1="1451.046875" y1="0" x2="1451.046875" y2="5" style="visibility: inherit;" fill="rgb(0, 0, 0)" stroke="rgb(204, 204, 204)" stroke-width="1px"></line></g><g transform="translate(0, 8)"><text x="0" y="0" dx="0em" dy="0.95em" style="text-anchor: middle; visibility: hidden; font-family: Roboto, sans-serif; font-size: 12px; font-weight: 200;" fill="rgb(33, 33, 33)" stroke="none" stroke-width="1px">-2</text><text x="96.73645833333333" y="0" dx="0em" dy="0.95em" style="text-anchor: middle; visibility: inherit; font-family: Roboto, sans-serif; font-size: 12px; font-weight: 200;" fill="rgb(33, 33, 33)" stroke="none" stroke-width="1px">0</text><text x="193.47291666666666" y="0" dx="0em" dy="0.95em" style="text-anchor: middle; visibility: inherit; font-family: Roboto, sans-serif; font-size: 12px; font-weight: 200;" fill="rgb(33, 33, 33)" stroke="none" stroke-width="1px">2</text><text x="290.209375" y="0" dx="0em" dy="0.95em" style="text-anchor: middle; visibility: inherit; font-family: Roboto, sans-serif; font-size: 12px; font-weight: 200;" fill="rgb(33, 33, 33)" stroke="none" stroke-width="1px">4</text><text x="386.9458333333333" y="0" dx="0em" dy="0.95em" style="text-anchor: middle; visibility: inherit; font-family: Roboto, sans-serif; font-size: 12px; font-weight: 200;" fill="rgb(33, 33, 33)" stroke="none" stroke-width="1px">6</text><text x="483.68229166666663" y="0" dx="0em" dy="0.95em" style="text-anchor: middle; visibility: inherit; font-family: Roboto, sans-serif; font-size: 12px; font-weight: 200;" fill="rgb(33, 33, 33)" stroke="none" stroke-width="1px">8</text><text x="580.41875" y="0" dx="0em" dy="0.95em" style="text-anchor: middle; visibility: inherit; font-family: Roboto, sans-serif; font-size: 12px; font-weight: 200;" fill="rgb(33, 33, 33)" stroke="none" stroke-width="1px">10</text><text x="677.1552083333333" y="0" dx="0em" dy="0.95em" style="text-anchor: middle; visibility: inherit; font-family: Roboto, sans-serif; font-size: 12px; font-weight: 200;" fill="rgb(33, 33, 33)" stroke="none" stroke-width="1px">12</text><text x="773.8916666666667" y="0" dx="0em" dy="0.95em" style="text-anchor: middle; visibility: inherit; font-family: Roboto, sans-serif; font-size: 12px; font-weight: 200;" fill="rgb(33, 33, 33)" stroke="none" stroke-width="1px">14</text><text x="870.628125" y="0" dx="0em" dy="0.95em" style="text-anchor: middle; visibility: inherit; font-family: Roboto, sans-serif; font-size: 12px; font-weight: 200;" fill="rgb(33, 33, 33)" stroke="none" stroke-width="1px">16</text><text x="967.3645833333333" y="0" dx="0em" dy="0.95em" style="text-anchor: middle; visibility: inherit; font-family: Roboto, sans-serif; font-size: 12px; font-weight: 200;" fill="rgb(33, 33, 33)" stroke="none" stroke-width="1px">18</text><text x="1064.1010416666666" y="0" dx="0em" dy="0.95em" style="text-anchor: middle; visibility: inherit; font-family: Roboto, sans-serif; font-size: 12px; font-weight: 200;" fill="rgb(33, 33, 33)" stroke="none" stroke-width="1px">20</text><text x="1160.8375" y="0" dx="0em" dy="0.95em" style="text-anchor: middle; visibility: inherit; font-family: Roboto, sans-serif; font-size: 12px; font-weight: 200;" fill="rgb(33, 33, 33)" stroke="none" stroke-width="1px">22</text><text x="1257.5739583333334" y="0" dx="0em" dy="0.95em" style="text-anchor: middle; visibility: inherit; font-family: Roboto, sans-serif; font-size: 12px; font-weight: 200;" fill="rgb(33, 33, 33)" stroke="none" stroke-width="1px">24</text><text x="1354.3104166666667" y="0" dx="0em" dy="0.95em" style="text-anchor: middle; visibility: inherit; font-family: Roboto, sans-serif; font-size: 12px; font-weight: 200;" fill="rgb(33, 33, 33)" stroke="none" stroke-width="1px">26</text><text x="1451.046875" y="0" dx="0em" dy="0.95em" style="text-anchor: middle; visibility: hidden; font-family: Roboto, sans-serif; font-size: 12px; font-weight: 200;" fill="rgb(33, 33, 33)" stroke="none" stroke-width="1px">28</text></g><line x1="0" y1="0" x2="1451.046875" y2="0" fill="rgb(0, 0, 0)" stroke="rgb(204, 204, 204)" stroke-width="1px"></line></g></g></g></g></svg>